<svg width="50" height="50" xmlns="http://www.w3.org/2000/svg">
 <!-- Created with SVG-edit - http://svg-edit.googlecode.com/ -->
 <defs>
  <pattern height="100" width="100" y="0" x="0" patternUnits="userSpaceOnUse" id="gridpattern">
   <image height="100" width="100" y="0" x="0"/>
  </pattern>
 </defs>
 <title>landscapeIcon</title>
 <g>
  <title>Layer 1</title>
  <path stroke="#ffffff" fill-opacity="0" fill="#000000" fill-rule="evenodd" clip-rule="evenodd" d="m18.24277,12.07399c1.33351,1.10449 2.22252,4.66456 2.51885,7.15518c0.59267,-0.10704 1.18534,-0.18408 1.62985,-0.22986c0.4445,-2.11584 1.33351,-4.07285 2.07434,-5.09809c8.44557,3.18181 7.70473,-6.17698 10.37175,-12.18126c-5.63037,2.99393 -15.55762,-0.27407 -12.14976,10.95901c2.37069,-4.41985 4.88954,-6.38855 10.51992,-9.30417c-5.48221,3.27242 -9.77908,7.94897 -11.55709,13.53046c-0.44451,-2.44863 -1.18534,-3.97843 -2.07435,-5.60454c1.77801,-9.61265 -2.81519,-10.96437 -12.8906,-10.48474c3.85236,4.91115 0,12.71393 11.55709,11.25801l0,0l0,0zm29.04089,31.95218c-2.07435,-1.61853 -3.11153,-1.84051 -5.33404,-0.91567c-2.81519,1.25005 -4.88954,0.90303 -8.7419,4.02011c-3.25969,2.65008 -5.18587,2.41516 -8.14923,0.9182c-2.81519,-1.4076 -5.03771,-1.7101 -7.8529,-2.6504c-2.81519,-0.87556 -4.29686,-2.75049 -6.37121,-4.35733c-3.40786,-2.66523 -4.74137,-4.22597 -8.00107,-5.27331c-5.4822,-1.69178 0.44451,-5.11135 7.55656,-1.52381c1.77802,0.6195 3.7042,0.86516 5.33404,1.6981c4.74137,2.40473 8.00107,1.0025 11.85343,-0.36532c1.48168,-0.55888 2.66702,-1.67347 -0.44451,-1.20459c-3.25969,0.5112 -6.07488,0.75527 -9.6309,-1.24341c-2.07435,-1.53643 -2.81519,-3.19664 -2.81519,-4.29166c0,-1.20552 1.03717,-1.72588 2.81519,-0.64222c0,0.03693 0.14816,0.07515 0.14816,0.11556c2.51885,1.61695 7.11206,0.96176 8.74191,0.30911c4.74136,-1.94059 6.81572,-1.06312 9.92724,-2.24087c3.85236,-1.50296 6.66755,-0.70979 8.2974,1.67442c0.29634,0.58193 2.07435,2.44673 4.29686,3.15685c0.74084,0.27818 -0.44451,13.7799 -1.62984,12.81624l0,0zm-11.26075,-19.64872c-3.40787,1.47202 -6.37122,0.63876 -8.14923,1.69021c-2.51886,1.45054 -5.48221,1.63115 -6.51939,1.59168c-2.66702,-0.11051 -5.92671,-3.52943 -7.70472,-0.45151c-1.33351,2.11235 -0.29634,4.97208 3.11152,7.2098c-5.63038,-1.23648 -6.96389,-2.98194 -10.66808,-3.304c9.48274,-11.37105 16.89113,-15.09246 29.9299,-6.73617l0,0l0,-0.00001z" id="svg_10"/>
  <rect fill="#ffffff" stroke="#ffffff" stroke-width="5" x="644.28223" y="603.70313" width="5.93262" height="9.9668" id="svg_13"/>
 </g>
</svg>